<?xml version="1.0" encoding="UTF-8"?> <svg xmlns="http://www.w3.org/2000/svg" width="226" height="30" viewBox="0 0 226 30" fill="none"><path d="M143.065 2.43652H139.896V5.74068H143.065V2.43652Z" fill="#29282A"></path><path d="M143.065 8.11914H139.896V28.7139H143.065V8.11914Z" fill="#29282A"></path><path d="M176.684 14.6161C176.684 6.69561 181.713 0 189.834 0C195.577 0 200.21 3.44701 202.032 8.87281L199.022 9.90188C197.596 5.70357 194.188 3.16924 189.834 3.16924C183.459 3.16924 179.853 8.51567 179.853 14.6161C179.853 20.7164 183.26 25.9835 189.794 25.9835C194.191 25.9835 197.556 23.4492 198.982 19.3302L201.993 20.3196C200.17 25.7851 195.538 29.1528 189.794 29.1528C181.676 29.1528 176.684 22.5392 176.684 14.6161Z" fill="#29282A"></path><path d="M226 18.195C226 24.6499 221.762 29.1259 215.781 29.1259C209.799 29.1259 205.442 24.6499 205.442 18.195C205.442 11.7401 209.68 7.30371 215.781 7.30371C221.881 7.30371 226 11.7798 226 18.195ZM215.86 26.1551C220.13 26.1551 222.834 22.9859 222.834 18.2347C222.834 13.4835 220.13 10.2745 215.86 10.2745C211.59 10.2745 208.614 13.4835 208.614 18.2347C208.614 22.9859 211.514 26.1551 215.86 26.1551Z" fill="#29282A"></path><path d="M80.3868 0.950195V28.7141H77.1382V4.00039H76.8208L69.0194 28.7141H63.4983L55.6969 4.00039H55.3795V28.7141H52.1309V0.950195H58.1387L65.9401 25.6639H66.575L74.3764 0.950195H80.3842H80.3868Z" fill="#29282A"></path><path d="M110.971 28.7136H107.802V14.3594C107.802 10.4389 110.111 8.09766 113.984 8.09766H118.738V11.0685H113.984C112.085 11.0685 110.971 12.2748 110.971 14.1584V28.7109V28.7136Z" fill="#29282A"></path><path d="M104.476 18.193C104.476 11.7778 100.238 7.30176 94.2564 7.30176C88.275 7.30176 83.918 11.7778 83.918 18.193C83.918 24.6082 88.156 29.124 94.2564 29.124C97.087 29.124 99.5261 28.1187 101.312 26.378V28.714H104.481C104.481 28.714 104.476 18.3068 104.476 18.1904V18.193ZM94.3357 26.1532C89.9866 26.1532 87.0898 22.9442 87.0898 18.2327C87.0898 13.5212 90.0263 10.2726 94.3357 10.2726C98.6451 10.2726 101.309 13.4418 101.309 18.2327C101.309 23.0236 98.6055 26.1532 94.3357 26.1532Z" fill="#29282A"></path><path d="M158.051 8.00558H153.298L149.575 8.00822H146.406V28.7247H149.575V10.9843H155.298V10.9764H158.054C159.954 10.9764 161.067 12.1827 161.067 14.0663V28.7141H164.237V14.2647C164.237 10.3441 161.927 8.00293 158.054 8.00293L158.051 8.00558Z" fill="#29282A"></path><path d="M121.568 11.1053L125.65 11.1V22.449C125.65 26.3695 127.96 28.7107 131.833 28.7107H136.587V25.7399H131.833C129.933 25.7399 128.82 24.5336 128.82 22.65V11.0947H128.899L135.597 11.0868V8.11596L128.899 8.12389V1.14258H125.73V8.09479H125.653V8.12919L121.571 8.13448V11.1053H121.568Z" fill="#29282A"></path><path d="M39.5229 3.6194V0.577148C31.8167 0.577148 24.8275 3.70935 19.7614 8.77008C14.6954 3.712 7.70617 0.577148 0 0.577148V3.6194C6.92841 3.6194 13.2034 6.46061 17.7271 11.0372C15.3621 13.9737 13.5764 17.3969 12.55 21.1322C10.0077 16.8492 5.33586 13.9684 0.00264802 13.9684V17.0106C6.36758 17.0106 11.5447 22.1877 11.5447 28.5527H14.5923C14.5923 22.8438 16.5234 17.5767 19.7641 13.3679C23.0048 17.5767 24.9359 22.8438 24.9359 28.5527H27.9835C27.9835 22.1877 33.1606 17.0106 39.5255 17.0106V13.9684C34.1923 13.9684 29.5205 16.8466 26.9782 21.1322C25.9491 17.3995 24.1661 13.9763 21.8011 11.0372C26.3248 6.46061 32.5998 3.6194 39.5282 3.6194H39.5229Z" fill="#29282A"></path></svg> 