<svg xmlns="http://www.w3.org/2000/svg" xmlns:xlink="http://www.w3.org/1999/xlink" width="240.891" height="31.983" viewBox="0 0 240.891 31.983">
  <defs>
    <clipPath id="clip-path">
      <rect id="Rectángulo_23" data-name="Rectángulo 23" width="240.891" height="31.983" fill="#ff310e"/>
    </clipPath>
  </defs>
  <g id="Grupo_22" data-name="Grupo 22" transform="translate(0 0)">
    <g id="Grupo_22-2" data-name="Grupo 22" transform="translate(0 0)" clip-path="url(#clip-path)">
      <path id="Trazado_47" data-name="Trazado 47" d="M77.03,5.127h-7.3v.1a2.8,2.8,0,0,1,.375,1.5,13.869,13.869,0,0,1-.738,3.117L64.746,23.2a11.888,11.888,0,0,1-1.849,3.85v.1h6.095v-.1a3.056,3.056,0,0,1-.444-1.575,9.676,9.676,0,0,1,.616-2.71l.315-.945H76.1s.422,1.206.666,1.915a5.289,5.289,0,0,1,.282,1.679,4.813,4.813,0,0,1-.336,1.635v.1h8.835v-.1a16.509,16.509,0,0,1-2.189-4.688ZM70.661,18.256l2.032-6.149h.033l2.136,6.149ZM59.15,22.266c0,1.941.141,3.748.781,4.787v.1h-8.6v-.1c.87-1.459.716-2.979.716-4.721V18.712l0-.848L50.84,15.586,46.7,7.8a8.225,8.225,0,0,0-1.88-2.575v-.1h7.536v.1l4.471,9.094s1-2.031,1.236-2.515c.456-.929,1.02-2.079,1.228-2.5a6.307,6.307,0,0,0,.771-2.545A2.152,2.152,0,0,0,59.6,5.3v-.17h5.994v.1L59.6,17.178l-.453.9Zm43.553,4.89H87.181v-.1A10.07,10.07,0,0,0,87.9,22.37V9.884a10.21,10.21,0,0,0-.714-4.653v-.1H95.6v.1a11.843,11.843,0,0,0-.6,4.72V22.6a19.129,19.129,0,0,0,3.268.289,11.626,11.626,0,0,0,4.825-.655h.2ZM34.515,4.591c-6.871,0-11.61,4.232-11.61,10.242,0,8.763,9.308,10.016,12.509,7.178l-.544-1.136c-2.819.581-5.378-1.583-5.378-6.378,0-3.9,2.046-6.33,4.914-6.33,3.276,0,5.352,3.32,5.352,8.091,0,5.432-3.114,9.548-9,9.548-6.687,0-11.769-5.273-14.851-10.533,3.467-1.35,5.494-3.941,5.494-7.489C21.4,3.195,17.965,0,11.721,0H0V.1A14.954,14.954,0,0,1,.715,5.6V22.37A10.072,10.072,0,0,1,0,27.056v.1l8.772,0v-.1a12.778,12.778,0,0,1-.73-4.686c0-2.606,0-4.639,0-4.639h1.07c6.085,8.9,12.99,12.6,20.39,12.6,10.7,0,17.028-6.74,17.028-14.289,0-6.311-4.849-11.443-12.018-11.443M8.043,14.213V4.155h2.408c2.833,0,4.019,1.654,4.019,4.316,0,3.223-1.9,5.742-4.929,5.742ZM154.927,5.228a10.259,10.259,0,0,0-.7,4.653l0,13.7a8.14,8.14,0,0,0,.7,3.475v.1H149.8c-1.094-.462-2.295-1.807-3.822-3.468-1.247-1.357-7.2-8.161-7.2-8.161h-.1V22.07a32.3,32.3,0,0,0-5.33,1.037V9.881a10.182,10.182,0,0,0-.714-4.651v-.1l4.379,0h1.833l10.03,12.026.007-.036V9.881a10.218,10.218,0,0,0-.713-4.653v-.1h6.755Zm-10.27,21.929c-8.724.08-10.8,4.826-21.876,4.826a40.889,40.889,0,0,1-10.1-1.385v-.1a10,10,0,0,0,.714-4.671V5.6A14.957,14.957,0,0,0,112.683.1V0h17.9l.589,4.964h-.1a14.763,14.763,0,0,0-5.329-.7h-4.733l0,8.6h2.312a34.738,34.738,0,0,0,6.159-.386h.168v5.165h-.168a26.155,26.155,0,0,0-6.068-.5h-2.355l0,8.577a26.324,26.324,0,0,0,5.271.656c6.583,0,9.414-2.354,16.005-2.354.213-.008.367.006.589,0a28.684,28.684,0,0,0,2.856,3.133h-1.124M182.676,9.881V22.367a10.063,10.063,0,0,0,.714,4.686v.1h-8.535v-.1a10.092,10.092,0,0,0,.713-4.686V9.881a10.2,10.2,0,0,0-.713-4.653v-.1h8.535v.1a10.191,10.191,0,0,0-.714,4.653M165.59,14.735v0h.6a18.816,18.816,0,0,0,4.647-.346h.151v4.546h-.151a14.984,14.984,0,0,0-4.564-.448h-.679v3.777c0,2.2.116,3.708.781,4.787v.1h-8.609v-.1a10.079,10.079,0,0,0,.714-4.686V9.881a10.2,10.2,0,0,0-.714-4.653v-.1h14.682l.541,4.45h-.1a10.821,10.821,0,0,0-4.453-.715H165.59v5.875Zm36.382,7.843-.555,4.575h-15.1v-.1a10.063,10.063,0,0,0,.714-4.686V9.881a10.2,10.2,0,0,0-.714-4.653v-.1h14.679l.544,4.449h-.1a10.822,10.822,0,0,0-4.452-.714H194.13v5.191h.011v0h.589a18.719,18.719,0,0,0,4.647-.347h.151V18.25h-.151a15.04,15.04,0,0,0-4.565-.447h-.682v5.181a16.121,16.121,0,0,0,2.919.234c2.663,0,3.655-.169,4.754-.64Zm38.919-5.757c0,7.52-5.533,13.494-14.786,13.494-7.167,0-9.434-3.144-18.335-3.159v0h-3.688v-.1a10.1,10.1,0,0,0,.713-4.688V9.879a10.228,10.228,0,0,0-.713-4.653v-.1h8.532v.1a11.629,11.629,0,0,0-.715,4.72V23.371c5.32,0,7.6,1.606,12.276,1.606,6.465,0,9.571-3.559,9.571-8.588,0-4.31-2.222-7.529-6.1-7.529h-2.493V22.49a20.087,20.087,0,0,1-7.11-.911V9.879a10.193,10.193,0,0,0-.715-4.653v-.1H227.3c8.345,0,13.59,5.074,13.59,11.7" transform="translate(0 0)" fill="#ff310e" fill-rule="evenodd"/>
    </g>
  </g>
</svg>
