<svg xmlns="http://www.w3.org/2000/svg" viewBox="0 0 150.22 106.77"><defs><style>.cls-1{fill:#d50032;}</style></defs><title>Asset 1</title><g id="Layer_2" data-name="Layer 2"><g id="Capa_2" data-name="Capa 2"><path class="cls-1" d="M124.36,69.75c0-.18-.14-.25-.34-.25h-.37V70H124C124.27,70,124.36,69.9,124.36,69.75Z"/><path class="cls-1" d="M142.06,83.59A7.6,7.6,0,0,0,136.71,78,10.94,10.94,0,0,1,142.06,83.59Z"/><path class="cls-1" d="M143.52,80a12.15,12.15,0,0,1-2.05-6.58A6.6,6.6,0,0,0,143.52,80Z"/><path class="cls-1" d="M6.15,69.75a4.22,4.22,0,0,1,.42,0,23.91,23.91,0,0,1,4.68-6.12A16.9,16.9,0,0,0,6.15,69.75Z"/><polygon class="cls-1" points="88.91 10.74 87.71 11.09 86.61 15.78 87.69 16.03 88.91 10.74"/><path class="cls-1" d="M128.32,51.61a9.57,9.57,0,0,1-.9-5C126.81,47.86,127.3,50.24,128.32,51.61Z"/><path class="cls-1" d="M113,56.91a22.65,22.65,0,0,1-1.3-3.73s0,0,0,0a24.1,24.1,0,0,1-1.2,3.65l-.66,1.81h3.94Z"/><path class="cls-1" d="M124,71.65a1.48,1.48,0,1,0-1.47-1.48A1.48,1.48,0,0,0,124,71.65Zm-.74-2.48H124c.52,0,.82.15.82.62s-.22.5-.56.52l.53.89h-.44l-.47-.86h-.21v.86h-.43Z"/><polygon class="cls-1" points="72.91 13.32 70.58 16.91 74.14 14.61 75.11 24.77 76.08 14.6 79.64 16.9 77.32 13.31 83.31 12.35 77.32 11.38 79.64 7.79 76.08 10.09 75.11 0 74.14 10.11 70.58 7.8 72.91 11.4 66.91 12.36 72.91 13.32"/><path class="cls-1" d="M136,91.64c.09-1.08-1.51-4.29.29-6.13C133.59,87,135.76,90.56,136,91.64Z"/><path class="cls-1" d="M135.71,68.41c-.29,4.94,3.43,8.4,4.62,9.13C139.05,76.23,136.1,72.42,135.71,68.41Z"/><path class="cls-1" d="M140.07,78.87C142.17,81,144,85,144,90.82,144.74,86.2,143.34,80.84,140.07,78.87Z"/><path class="cls-1" d="M62,16.05a2.51,2.51,0,0,0,1.88-3.29,2.67,2.67,0,1,0-5.15,1.4A2.49,2.49,0,0,0,62,16.05Zm-1.28-4.74c.76-.2,1.51.41,1.88,1.8s.07,2.24-.73,2.46-1.51-.43-1.86-1.76S60,11.53,60.75,11.31Z"/><path class="cls-1" d="M60.18,23.43a.41.41,0,0,0-.18.46,17.23,17.23,0,0,0,2.29,5.45,1.37,1.37,0,0,1,.5,0A18.14,18.14,0,0,1,60.42,24c.74-.4,1-1.17.23-1.66A.93.93,0,0,1,60.18,23.43Z"/><path class="cls-1" d="M63.33,30.81A17.5,17.5,0,0,0,65,32.57a1.72,1.72,0,0,1,.51-.18c-.37-.32-1-.9-1.21-1.15a1.39,1.39,0,0,0-1.15-1.86.82.82,0,0,1,.37,1.15.85.85,0,0,0-.79,0A.88.88,0,0,1,63.33,30.81Z"/><polygon class="cls-1" points="54.16 18.7 52.76 15.19 57.33 17.46 57.68 17.34 55.82 12.4 55.26 12.6 56.32 15.39 52.69 13.61 51.65 14.04 53.62 18.93 54.16 18.7"/><path class="cls-1" d="M14.17,57a4.77,4.77,0,0,0-1.65-3.08c3.26,4.42-3.65,8.84-5.79,13.84,4.13-5.76,8.2-7.44,11.05-13,1.45-2.81,1.16-7-2.06-7.55a3.32,3.32,0,0,1,3.64-1A4.4,4.4,0,0,0,12.72,50C15.38,47.35,21.3,51.5,14.17,57Z"/><polygon class="cls-1" points="48.15 21.77 46.3 18.48 51.13 20.13 51.46 19.96 48.97 15.31 48.44 15.58 49.86 18.21 46.03 16.92 45.05 17.49 47.65 22.07 48.15 21.77"/><path class="cls-1" d="M20.75,52.54a22.51,22.51,0,0,1-4.58,6.6C18.76,56.87,20.22,54.72,20.75,52.54Z"/><path class="cls-1" d="M17.19,57.27c2-2.23,4.52-6.49,1.64-9.57C21.09,51.29,18.19,55.78,17.19,57.27Z"/><path class="cls-1" d="M92.14,17.4l.14.07a1.85,1.85,0,0,0,2.64-.92,1.62,1.62,0,0,0-.84-2L96,13.32l0-.21L92.92,12l-.46.86,2.09.76-1.76,1.17c.48.15,1.33.69,1,1.49a1,1,0,0,1-1.38.58,1.18,1.18,0,0,1-.74-1.16l-.73.18A1.85,1.85,0,0,0,92.14,17.4Z"/><path class="cls-1" d="M42.72,25.74l-.38-1.27,1.81-1.4,1.16.67,1.06-.8-5-2.83-.72.56,1.54,5.49ZM41.5,21.55l2.09,1.2-1.43,1.11Z"/><path class="cls-1" d="M65.9,26.85c.15,1.1.82,4.48,3.17,6.15a5.77,5.77,0,0,0,8.46-2.13c-1.91,2.26-4.8,3.27-6.92,2.23a2.93,2.93,0,0,1-1.87-2.19c-.21-1.66,1.54-2.14,2.05-1.1a1.83,1.83,0,0,1-.68.75c2.53.08,2.57-2.38,1.34-2.69,1-.7.81-1.43,1.94-2a2.59,2.59,0,0,0-3.57.53c.51-1.09-.17-2.46-1.32-2.27,1,.74-.43,2,0,4v0A4.14,4.14,0,0,0,68.05,31a10.45,10.45,0,0,1-1.67-4.19,1.88,1.88,0,0,0,1.41-1.7l-.28.11a4.69,4.69,0,0,0-.08-1.68c-.2.41,0,1.14-.21,1.82a3.38,3.38,0,0,0-1.15.82,3.3,3.3,0,0,0-.89-.54,1.77,1.77,0,0,1,.7-1.46,2.21,2.21,0,0,1,1,1.09,1.31,1.31,0,0,0-.17-.82,2,2,0,0,1,.56-.93,1.75,1.75,0,0,0-.81.64,2.43,2.43,0,0,0-.6-.42,2.58,2.58,0,0,0-.65.74,1.73,1.73,0,0,0-.6-.56,2.62,2.62,0,0,1,.55.12,1.73,1.73,0,0,1,.7-1.15c.28.14.4.27.71.73a4,4,0,0,0,0-.4.53.53,0,0,1,.25-.26c.12.05.18.15.29.37,0-.29-.13-.6-.15-.79a1.13,1.13,0,0,0-.47.39,1.78,1.78,0,0,0-.6-.92,2,2,0,0,0-.57,1,1.13,1.13,0,0,0-.39-.35c0,.33-.06.46,0,1.15a3.21,3.21,0,0,0-.42-.05c.14.27-.19.94.31,1.76a3.82,3.82,0,0,0-.43,0C64.54,25.94,64.85,26.87,65.9,26.85Zm6.82-.94c-.46.08-.64,1.38-2.24,2,.42.06.81.6.51,1.45a1.41,1.41,0,0,0-2.34-.18C68.93,27.68,70.74,25.11,72.72,25.91Z"/><path class="cls-1" d="M133,57.27c-1-1.49-3.9-6-1.64-9.57C128.52,50.78,131,55,133,57.27Z"/><path class="cls-1" d="M8.76,73.44A12.08,12.08,0,0,1,6.7,80,6.62,6.62,0,0,0,8.76,73.44Z"/><path class="cls-1" d="M134.05,59.14a22.51,22.51,0,0,1-4.58-6.6C130,54.72,131.46,56.87,134.05,59.14Z"/><path class="cls-1" d="M56.15,77.92a2.22,2.22,0,0,0,1.11-2.07,2.17,2.17,0,0,0-.84-1.92c-.73-.56-1.55-.49-3.38-.48v4.82A7,7,0,0,0,56.15,77.92Z"/><path class="cls-1" d="M104,23.73a1.85,1.85,0,0,0,2.69-.46,1.64,1.64,0,0,0-.61-2.4,1.68,1.68,0,0,0-.28-.14l2.18-.8-.9-.62s-.6.21-.76.28c-.78.32-2.42.72-3,1.65A1.73,1.73,0,0,0,104,23.73Zm.18-1.88c.31-.5.9-.89,1.42-.57l0,0c.52.32.48.93.15,1.45a1,1,0,0,1-1.39.51l0,0A1,1,0,0,1,104.19,21.85Z"/><path class="cls-1" d="M145.94,66.94C141.79,58.83,139.17,58,141,53a2.72,2.72,0,0,0-3.12,3.08c.22,3.17,5.13,5.57,8.66,14.56-2.93-1.45-4.68,1.83-2.69,6.18.07.18.14.35.21.5a27.18,27.18,0,0,1,2.08,5c0-.35-.48-6.11-1.44-8.38a4,4,0,0,0-.7,1.25c0-1.84.54-3.59,2.81-3.86.13.35.26.71.38,1.08a29.68,29.68,0,0,1,.8,16.26,10.21,10.21,0,0,0-.15-1.7c.18-1.61.83-7.35-1.17-12.42,1,4.62,1.08,7.73.64,10.37a5.4,5.4,0,0,1-.26-.86,24.55,24.55,0,0,0-1.25-9.47,41.39,41.39,0,0,1,.86,9.08,3.52,3.52,0,0,0,.08.9,15.64,15.64,0,0,1-.61,9.21l-.21.43a13.85,13.85,0,0,0,.39-5.76c0,3.26-1.37,8.48-3,9.64,2.23-4.35,4.91-12.72-2.15-19.84,7.09,8.24,3,22.47-7.65,26.4a8.91,8.91,0,0,0,.83-.81,8.06,8.06,0,0,0,2.51-1.69,6.9,6.9,0,0,1-1.94,1c.11-.16.22-.32.32-.49a7.82,7.82,0,0,0,2.81-2.45,10.06,10.06,0,0,1-2.42,1.73,6.74,6.74,0,0,0,.35-.82,8.84,8.84,0,0,0,2.77-2.42,11.09,11.09,0,0,1-2.6,1.93c.06-.2.11-.4.16-.62a3.93,3.93,0,0,0,1.32-1.18,4.34,4.34,0,0,1-1.24.79,9.3,9.3,0,0,0,.15-1.11c-1.12,4.67-3.95,6.95-6.95,7.08a7.53,7.53,0,0,0,2.5-1.43c3.2-2.88,5.28-9.06,1-15.71,3.16,6.56,1.78,13.19-2.67,15.66a9.86,9.86,0,0,1-7.63.46,16,16,0,0,1-2.1-.9c0-.1,0-.2.07-.3,2.09,1.18,8.5,2.82,11.29-1.76-4.28,4.38-9.82,1.89-11.22,1.14,0-.14,0-.3,0-.45,1.15.71,5.34,2.38,8.38.4a9.54,9.54,0,0,1-8.42-.91c0-.24,0-.32-.06-.58a6.19,6.19,0,0,0,3.72,1.27,7.16,7.16,0,0,1-3.92-2c0-.14-.08-.28-.13-.43.27,6.36-4.76,5.45-5.79,3.33h.31c.8,1.12,3.31,1.65,4.22-.16a2.75,2.75,0,0,1-3.78.16h.07a2.3,2.3,0,0,0,.45,0c2.22,1,3.61-.73,3.25-2.92-.15,2.25-1.28,2.94-2.64,2.7a1.52,1.52,0,0,0,.34-.22c1.81-.3,1.89-2.23,1.82-3.37a3.3,3.3,0,0,1-1,2.25,2.48,2.48,0,0,0,.12-.67c.59-1.22.31-2.53,1-3.63a6.28,6.28,0,0,0-1.14,2.74,5.08,5.08,0,0,1,3.53-5.36,4.47,4.47,0,0,1,4.64,1.33,3,3,0,0,1-.19,4,2.72,2.72,0,0,0-2.3-2.15,1.73,1.73,0,0,1,0-.32,2.92,2.92,0,0,1,2.28,1.55c-.17-1.25-1.37-1.78-2.14-2a2.72,2.72,0,0,1,.11-.25,4,4,0,0,1,1.79,1,2.73,2.73,0,0,0-1.61-1.22,1.35,1.35,0,0,1,.28-.25,3,3,0,0,1,1,.53,1.91,1.91,0,0,0-.68-.7,1.56,1.56,0,0,1,.62-.11c-2.8-1.57-4.7,2.25-2.33,4.25a6.08,6.08,0,0,0,6.06.62c4.46-2,4.15-6,3-7.79a3.13,3.13,0,0,0-3.56-1.51,3.78,3.78,0,0,1,5.09,1.81,9,9,0,0,1-.42,7.06,8.19,8.19,0,0,0,.78-7.32c-1.15-2.64-4.16-3.28-6-1.23A2.61,2.61,0,0,1,129,89.74a2.92,2.92,0,0,1,3.38.8A2.7,2.7,0,0,0,130.57,89c-1.11-2.45.18-4.55-.22-6.18,1.45.35,3.72,2,4.24,3.25h0a3.3,3.3,0,0,1,4.95-.46h0a3.36,3.36,0,0,0-2.3,2.75,2.46,2.46,0,0,1,1.48-2.81c-2.21-.27-2.25,1.63-2.15,2.79a27.23,27.23,0,0,1,.33,8.76,10.24,10.24,0,0,0,4.38-5.59A14.66,14.66,0,0,1,137.36,102c4.12-3.33,5.45-9.58,4.92-14.06a11.44,11.44,0,0,0-6.41-9.14,8.1,8.1,0,0,0-3.93-.8c1-1.94,3.58-2.44,6-1.28-.7-.58-5.15-4.62-2.18-10.11.75,2.61,4.1,3,4.88,8.5,0-2.59.59-4.36,2.38-5.11-3.07-6.73-12.24-10.89-16.6-19-2.63-4.89-2.5-9.51-2.68-11.95s-1-5.72-3.47-6.43c4-1,7.13,3.29,7.37,10.17a2.55,2.55,0,0,0-.48.27,13.77,13.77,0,0,0-2-6.85,22.57,22.57,0,0,1,1.56,7.26,2.36,2.36,0,0,0-.28.42,20.31,20.31,0,0,0-1.37-6.06,31.55,31.55,0,0,1,1,7,5.37,5.37,0,0,0,.49,3.26c-1-4.9,2.65-5.22,3.42-5.07-2.23,2.29-1.94,6.88-.77,8.86a5.05,5.05,0,0,1,1-5.16,6.14,6.14,0,0,1,.74-4.3,7.51,7.51,0,0,0-2,0c-1-4.21-.07-7.24,1.5-8.72,1.3-1.22,3.17-1.16,3.58,0a1.21,1.21,0,0,1-.52,1.5c-.52.25-1.44.08-1.73-1.07,0,1.87,2.38,3.89,4.43,2.52a2.87,2.87,0,0,1-2.07,2A2,2,0,0,1,132.54,37a2.6,2.6,0,0,0,.38,1.6,2.3,2.3,0,0,1-.6-.27,2.58,2.58,0,0,1-.6-2.08,2.1,2.1,0,0,0-.23,1.27,3,3,0,0,1,0-3.19,3.17,3.17,0,0,0-.37,4.43,3.09,3.09,0,0,0,4.12.63,4.87,4.87,0,0,0,.28-7.91,6.61,6.61,0,0,0-8.54.66,5.43,5.43,0,0,1,4.67-.81,7.26,7.26,0,0,0-3.76,5.76,5,5,0,0,0-.46-1.2A5.88,5.88,0,0,1,129,32.38,4.76,4.76,0,0,0,127,35.19c-.11-.17-.23-.35-.36-.53a4,4,0,0,1,1.3-2.12,3,3,0,0,0-1.57,1.77l-.06-.07a2.75,2.75,0,0,1,.29-1.67,4.7,4.7,0,0,0-.75,1.15c-1.7-1.81-4.18-2.8-6.8-1.15h-9.73a5,5,0,0,0-1.35-1.23c1.39,1.05,1.14,6.07-3.6,6.27a3.92,3.92,0,0,0,4.76-4.74c.89,2.28-.09,4.81-1.79,5.47-1.9.72-4.19.06-4.56-2.3,2.07,1.31,5.52-1,4.65-3.74s-4.92-.82-8.63,1.4h0a3.43,3.43,0,0,0,.23-.8c.18-.28.51-.86.4-.93-1.22,2-3.13,1.92-3.85,2.49a3.63,3.63,0,0,0,0-1c.21-.39.41-.74.32-.9-.79,1.52-1.88,2-2.46,2.66a1.63,1.63,0,0,0,0-.44,5.47,5.47,0,0,0,.47-.89.69.69,0,0,0,.06-.39A10.3,10.3,0,0,1,91,36.53c0-.07,0-.23,0-.35a3,3,0,0,1-1.73.59c0,1.56-.84,3.52-4.31,3.38a9,9,0,0,1-2.52,1.39l-.7.25a15.28,15.28,0,0,1-4.23.54h-.13A16.19,16.19,0,0,0,85,39.8c2.8.13,4-1.49,3.93-3.34,2.1-.13,4-1.37,3.43-3.79,2.57-1.64,10.13,0,9.69-3.93-.21-1.78-2.87-4.38-7.93-6.7-4.25-1.95-9.68-3.32-13.79-2.64-2.9.48-3,2.3-1.89,4.09s2.66,2.44,3,4.42a2.73,2.73,0,0,0-1.56,2.79,2.94,2.94,0,0,0-2,2.84c-3.49,2.35-7.95,1.36-9.61.54a1.78,1.78,0,0,0-2.08-1.76c.56,0,.84.84,1,1.39a1.05,1.05,0,0,0-1,.1,1.93,1.93,0,0,1,1.09.42,11.79,11.79,0,0,0,11,.16,6.31,6.31,0,0,0,.56,2.46c-2.62,1.42-7.14,2.08-12.29.42,3.91,1.8,8.55,2.56,12.81.55a7.71,7.71,0,0,0,.55.73c-3.53,1.64-11.19,2-15.64-2a2.59,2.59,0,0,1,1.24-2.56,2.65,2.65,0,0,0-1.7,1.89c-.36-.26-.89-1.66,1.07-3.14a4.35,4.35,0,0,0-1.75,1.43,16,16,0,0,1-1.58-1.67,6.29,6.29,0,0,0,1.29,2.12l-.12.2a22.24,22.24,0,0,1-1.76-2.62,1.75,1.75,0,0,1,1.33-1.63c-.87,0-1.68.92-1.53,1.62a1.88,1.88,0,0,1,1.45-2.78,3.9,3.9,0,0,0-2.08,1.07,22.46,22.46,0,0,1-1.14-3.63,1.61,1.61,0,0,1,1-.59,7.41,7.41,0,0,1-.51-2.64,1.66,1.66,0,0,0-.46.05c-.27-1.19,1-1.46,1.33-1.43-1.61-.49-3.18.42-3,1.33a1.13,1.13,0,0,0,.69.71,27.31,27.31,0,0,0,1.58,7,1.35,1.35,0,0,0,.81,1.84,20.82,20.82,0,0,0,1.29,2.2,3.64,3.64,0,0,1-1.6-1.51c0,.22-.1.43-.13.66-.49-.71-2.25-1.81-2.68-4.29-.2.48.33,1.71.45,2a2.29,2.29,0,0,1,0,.68,8.26,8.26,0,0,1-2.62-4.49.6.6,0,0,0,0,.4,12.24,12.24,0,0,0,.46,1.67,2,2,0,0,1,.16.7,2.7,2.7,0,0,0,0,.75c-1.37-1.09-2.6-.75-4-3.66a1,1,0,0,0,.09.43c.17.41.45.95.62,1.27a7.9,7.9,0,0,0,1,2.92c-1.22-.31-1.9-1-2.93-2.25-.06.1.15.38.43.73.71.85,1.14,1.17,1.21,1.31a8.57,8.57,0,0,0,1.71,2.6c-4.14-2.57-10-6.35-11-2.89C42,35.07,45.4,37.35,47.48,36c-.37,2.36-2.67,3-4.56,2.3-1.71-.66-2.69-3.19-1.8-5.47a3.92,3.92,0,0,0,4.76,4.74c-4.74-.2-5-5.22-3.59-6.27a4.74,4.74,0,0,0-1.35,1.23H31.21c-2.63-1.65-5.11-.66-6.81,1.15a4.7,4.7,0,0,0-.75-1.15,2.75,2.75,0,0,1,.29,1.67l-.06.07a3,3,0,0,0-1.57-1.77,4,4,0,0,1,1.31,2.12c-.14.18-.26.36-.37.53a4.72,4.72,0,0,0-2.07-2.81,6,6,0,0,1,1.66,3.52,5,5,0,0,0-.46,1.2,7.29,7.29,0,0,0-3.77-5.76,5.43,5.43,0,0,1,4.67.81,6.6,6.6,0,0,0-8.53-.66A4.87,4.87,0,0,0,15,39.4a3.09,3.09,0,0,0,4.12-.63,3.16,3.16,0,0,0-.37-4.43,3,3,0,0,1,0,3.19,2,2,0,0,0-.23-1.27,2.54,2.54,0,0,1-.6,2.08,2.3,2.3,0,0,1-.6.27,2.47,2.47,0,0,0,.38-1.6,2,2,0,0,1-1.56,1.64,2.83,2.83,0,0,1-2.06-2c2,1.37,4.45-.65,4.42-2.52-.29,1.15-1.21,1.32-1.73,1.07a1.21,1.21,0,0,1-.52-1.5c.42-1.17,2.29-1.23,3.58,0,1.57,1.48,2.49,4.51,1.5,8.72a7.51,7.51,0,0,0-2,0,6,6,0,0,1,.74,4.3,5,5,0,0,1,1,5.16c1.17-2,1.46-6.57-.77-8.86.77-.15,4.39.17,3.42,5.07a5.37,5.37,0,0,0,.49-3.26,31.55,31.55,0,0,1,1-7,20.31,20.31,0,0,0-1.37,6.06,3,3,0,0,0-.27-.42,22.5,22.5,0,0,1,1.55-7.26A13.77,13.77,0,0,0,23,43a2.27,2.27,0,0,0-.48-.27c.25-6.88,3.37-11.18,7.37-10.17-2.49.71-3.3,4.06-3.47,6.43S26.4,46.08,23.77,51c-4.36,8.11-13.53,12.27-16.6,19,1.79.75,2.41,2.52,2.38,5.11.79-5.49,4.13-5.89,4.89-8.5,3,5.49-1.49,9.53-2.19,10.11,2.45-1.16,5-.66,6,1.28a8.14,8.14,0,0,0-3.93.8,11.44,11.44,0,0,0-6.41,9.14c-.53,4.48.8,10.73,4.93,14.06A14.63,14.63,0,0,1,8.94,91.49a10.28,10.28,0,0,0,4.38,5.59,26.85,26.85,0,0,1,.34-8.76c.09-1.16.05-3.06-2.16-2.79A2.44,2.44,0,0,1,13,88.34a3.33,3.33,0,0,0-2.3-2.75,3.3,3.3,0,0,1,5,.46c.52-1.27,2.79-2.9,4.25-3.25-.41,1.63.88,3.73-.22,6.18a2.71,2.71,0,0,0-1.82,1.56,2.93,2.93,0,0,1,3.39-.8,2.62,2.62,0,0,1,1.44,2.42c-1.86-2-4.88-1.41-6,1.23a8.19,8.19,0,0,0,.78,7.32A8.9,8.9,0,0,1,17,93.65a3.76,3.76,0,0,1,5.08-1.81,3.11,3.11,0,0,0-3.55,1.51c-1.2,1.79-1.51,5.77,3,7.79a6.06,6.06,0,0,0,6.05-.62c2.37-2,.47-5.82-2.32-4.25a1.64,1.64,0,0,1,.62.11,1.85,1.85,0,0,0-.69.7,3,3,0,0,1,1-.53,1.14,1.14,0,0,1,.28.25A2.69,2.69,0,0,0,24.88,98a3.91,3.91,0,0,1,1.78-1,2.72,2.72,0,0,1,.11.25c-.76.24-2,.77-2.13,2a2.89,2.89,0,0,1,2.27-1.55c0,.09,0,.23,0,.32a2.7,2.7,0,0,0-2.3,2.15,3,3,0,0,1-.2-4,4.47,4.47,0,0,1,4.64-1.33,5.07,5.07,0,0,1,3.53,5.36,6.25,6.25,0,0,0-1.13-2.74c.66,1.1.38,2.41,1,3.63a2.48,2.48,0,0,0,.12.67,3.3,3.3,0,0,1-1-2.25c-.07,1.14,0,3.07,1.82,3.37a1.79,1.79,0,0,0,.34.22c-1.36.24-2.48-.45-2.64-2.7-.36,2.19,1,3.89,3.25,2.92a2.3,2.3,0,0,0,.45,0h.08a2.75,2.75,0,0,1-3.78-.16c.9,1.81,3.42,1.28,4.21.16h.31c-1,2.12-6.05,3-5.79-3.33-.05.15-.08.29-.12.43a7.26,7.26,0,0,1-3.93,2,6.23,6.23,0,0,0,3.73-1.27,4.16,4.16,0,0,0-.07.58,9.51,9.51,0,0,1-8.41.91c3,2,7.22.31,8.38-.4a3.38,3.38,0,0,0,0,.45c-1.4.75-6.93,3.24-11.22-1.14,2.79,4.58,9.2,2.94,11.3,1.76,0,.1,0,.2.06.3a15.4,15.4,0,0,1-2.1.9,9.83,9.83,0,0,1-7.62-.46C15.36,101.67,14,95,17.14,88.48c-4.28,6.65-2.21,12.83,1,15.71a7.73,7.73,0,0,0,2.5,1.43c-3-.13-5.82-2.41-6.94-7.08a7.62,7.62,0,0,0,.15,1.11,4.08,4.08,0,0,1-1.24-.79A3.84,3.84,0,0,0,13.91,100c.05.22.11.42.17.62a10.94,10.94,0,0,1-2.61-1.93,8.84,8.84,0,0,0,2.77,2.42,8.79,8.79,0,0,0,.35.82,10.26,10.26,0,0,1-2.42-1.73A7.82,7.82,0,0,0,15,102.69l.33.49a6.94,6.94,0,0,1-2-1,8.06,8.06,0,0,0,2.51,1.69,8.91,8.91,0,0,0,.83.81C6,100.77,2,86.54,9.06,78.3,2,85.42,4.67,93.79,6.9,98.14c-1.61-1.16-3-6.38-3-9.64a13.69,13.69,0,0,0,.39,5.76l-.22-.43a15.65,15.65,0,0,1-.6-9.21,4,4,0,0,0,.08-.9,40.08,40.08,0,0,1,.86-9.08,24.14,24.14,0,0,0-1.25,9.47,6.67,6.67,0,0,1-.27.86A27.62,27.62,0,0,1,3.56,74.6C1.56,79.67,2.21,85.41,2.39,87a10.16,10.16,0,0,0-.14,1.7A29.78,29.78,0,0,1,3,72.46c.13-.37.25-.73.38-1.08,2.27.27,2.86,2,2.81,3.86A4.2,4.2,0,0,0,5.54,74c-1,2.27-1.44,8-1.44,8.38a28,28,0,0,1,2.07-5,4.7,4.7,0,0,0,.21-.5c2-4.35.25-7.63-2.68-6.18,3.53-9,8.43-11.39,8.66-14.56A2.73,2.73,0,0,0,9.23,53c1.82,5-.8,5.81-4.95,13.92-14,27.28,9.34,46.4,25.65,37.71a3.44,3.44,0,0,0,2.61,1.73,6.28,6.28,0,0,0,5.53-2.93h74.08a6.29,6.29,0,0,0,5.53,2.93,3.46,3.46,0,0,0,2.62-1.73C136.6,113.34,159.91,94.22,145.94,66.94ZM136,36.05a1.59,1.59,0,0,1-2.12.24c1.61,0,2.08-2,.63-3.16C136,33.69,136.52,35.27,136,36.05Zm-119.62.24a1.59,1.59,0,0,1-2.12-.24c-.53-.78,0-2.36,1.5-2.92C14.28,34.25,14.75,36.26,16.36,36.29ZM122.8,82.54c-.15,2.86-2.51,5-6.63,5.12a14,14,0,0,1-5.94-1.17V82.25a8.36,8.36,0,0,0,3.34,2.31c2,.67,3.75.35,4.22-.78a1.4,1.4,0,0,0-.71-1.85c-.91-.54-2.55-.9-4.16-1.75-2.07-1.1-3-2.32-2.88-4.47A4.9,4.9,0,0,1,111.77,72,6.48,6.48,0,0,1,116,70.53a12.94,12.94,0,0,1,5.62.94v3.72a8.15,8.15,0,0,0-3-1.84c-1.86-.54-3.31-.2-3.72.64s0,1.54.93,2a44,44,0,0,1,4.48,1.84A4.64,4.64,0,0,1,122.8,82.54ZM124,68.34a1.85,1.85,0,1,1-1.84,1.83A1.84,1.84,0,0,1,124,68.34Zm-4.39-34.73a1.22,1.22,0,1,1,0,2.44h-9.35a3.81,3.81,0,0,0,0-1.07h7.91a3.36,3.36,0,0,0,1.38-.32,3.24,3.24,0,0,0-1.43-.32h-8a4,4,0,0,0-.23-.74ZM105.41,62.46c.36-.86,4.21-10.9,4.21-10.9a3,3,0,0,0-.36-2.45h6.15l5.53,13.32a8.52,8.52,0,0,0,2,3.07h-7.77a3.49,3.49,0,0,0,.16-3.07c-.12-.35-.43-1-.43-1h-6s-.26.65-.4,1a3.39,3.39,0,0,0,.11,3.06h-5.08A7.83,7.83,0,0,0,105.41,62.46Zm2.48,24.78h-7.23a6.8,6.8,0,0,0,1-4.2V75.11a6.88,6.88,0,0,0-1-4.21h7.23a6.88,6.88,0,0,0-1,4.21V83A6.8,6.8,0,0,0,107.89,87.24Zm-4.44-25.86-.4,4.11H89.53a6.93,6.93,0,0,0,1-4.22V53.34a6.9,6.9,0,0,0-1-4.21h7.33a6.83,6.83,0,0,0-1,4.21V62.7h4.08A5.56,5.56,0,0,0,103.45,61.38Zm-4.4,17.7c0,5.3-4.21,8.73-9.41,8.73s-9.4-3.43-9.4-8.73,4.21-8.71,9.4-8.71S99.05,73.8,99.05,79.08ZM95.2,37.45c-.29,0-.49-.13-.37-.35.46-.83,2.1-.72,3.23-1a4.93,4.93,0,0,1-1.63,1.58c-.52.27-1.22.28-.9-.07.09-.1.36-.23.51-.39A2.2,2.2,0,0,1,95.2,37.45Zm.17,1a7.43,7.43,0,0,1-1.76.7c-.4.07-1,0-.89-.2s.74-.05,1-.41a4.3,4.3,0,0,1-1.07.06c-.39-.06-.21-.52.31-.68C93.9,37.65,94.86,38.29,95.37,38.45Zm3-3.92a24.45,24.45,0,0,1,5.4-2.45,1.84,1.84,0,0,1,1.67.15,17.34,17.34,0,0,0-7.16,3,19.4,19.4,0,0,1,7.62-2.53c.07.1.2.32.26.43a12.28,12.28,0,0,0-6,1.88,14.7,14.7,0,0,1,6.16-1.39c0,.12,0,.25.07.38-1-.15-3.58.09-6.93,2.13,4.23-1.93,6.29-1.76,7-1.58a2.34,2.34,0,0,1-.07.45c-1.34-.38-3.45.23-5.33,1-1.08.45-2.25,1-3.49,1.56h0c.48-.48,1.78-2.17,2.26-2.73a6,6,0,0,1-2.11.89,8,8,0,0,0,.71-1.14Zm-3,1c.2-1,2-1,2.87-1.81-.19.48-.9,1.94-1.93,2.25-.11,0-.19,0-.18-.11a3.39,3.39,0,0,1,.18-.51s-.41.48-.61.54S95.34,35.63,95.36,35.54Zm-.18-1.43c0,.39-.44,2.79-1.15,3.06-.27.11-.18-.76-.14-.86a2.34,2.34,0,0,0-.31.61c-.15.33-.48.37-.56,0C92.87,36.3,94.52,34.89,95.18,34.11Zm-4.4,3.64c.47-1,1.89-1.87,2.25-2.4a9.26,9.26,0,0,1-1.12,2.89c-.5.57-.83.23-.58-.51a2.36,2.36,0,0,0-.4.63c-.06.12-.19.1-.24,0A1,1,0,0,1,90.78,37.75Zm0,1.29a6.08,6.08,0,0,1,1.28.63c-.63.23-1.38.52-1.86.25-.09-.05-.08-.08,0-.11s.56,0,.67-.19a1.18,1.18,0,0,1-1-.22C89.72,39.18,90.11,38.88,90.79,39Zm-2.54.88c.56-.18.88.32,1.29.51-.72.15-1,.23-1.33.1-.07,0-.08-.09,0-.1a1.42,1.42,0,0,0,.6-.1,1.55,1.55,0,0,1-.69-.12C88,40.13,88.07,40,88.25,39.92Zm-6.47,9.21a6.83,6.83,0,0,0-1,4.21V62.7h4.09a5.55,5.55,0,0,0,3.5-1.32L88,65.49H74.45a6.86,6.86,0,0,0,1-4.22V53.34a6.83,6.83,0,0,0-1-4.21ZM74.45,83a6.8,6.8,0,0,0,1,4.2H68.21a6.87,6.87,0,0,0,1-4.2s0-9.09,0-9.41l-1.46,0A5.16,5.16,0,0,0,64.27,75l.37-4.07H79L79.39,75a5.16,5.16,0,0,0-3.49-1.32l-1.46,0C74.44,74,74.45,83,74.45,83Zm-20.37,4.2h-7a6.8,6.8,0,0,0,1-4.2V75.11a6.89,6.89,0,0,0-1-4.21h9.22c2.33,0,3.53.19,4.57.88a4.37,4.37,0,0,1-2,7.87s0,0,0,0A6.72,6.72,0,0,1,62,82.51c.42.62.88,1.38,1.7,2.55a9,9,0,0,0,2.27,2.19H61.13a3.37,3.37,0,0,1-3.34-2c-.54-.87-.91-1.48-1.33-2.13a7.66,7.66,0,0,0-1.55-1.93,2.37,2.37,0,0,0-1.67-.5H53V83A7.23,7.23,0,0,0,54.08,87.24Zm4.76-38.11H72.22L72.6,53a5.26,5.26,0,0,0-3.48-1.13h-4v3.4h5.09l.37,3.88A5.25,5.25,0,0,0,67.15,58h-2v4.7h4.62a5.24,5.24,0,0,0,3.48-1.13l-.37,3.92h-14a6.86,6.86,0,0,0,1-4.22V53.34A6.83,6.83,0,0,0,58.84,49.13Zm-1-12.27c.09.24-.65.21-1.11,0a8.1,8.1,0,0,1-1.2-.62L55,35.87c.66-.08,1.91-.56,3-.07.6.28.59.68.1.68a6,6,0,0,1-1.27-.28C57.12,36.66,57.83,36.74,57.88,36.86Zm2.61.71c.61.33.25.6-.47.58a4.27,4.27,0,0,1-1-.07,1.5,1.5,0,0,0,.9.34c.25,0-.08.27-.67.21a9.34,9.34,0,0,1-2-.72C58,37.7,59.19,36.86,60.49,37.57Zm4,3.09s0,.07-.09.09a2.57,2.57,0,0,1-1.63-.22A3.57,3.57,0,0,1,64.5,40c.34.09,0,.45-.6.41C64.1,40.62,64.44,40.56,64.49,40.66Zm21.58-1.53a1.42,1.42,0,0,0,.76-1.57,2.17,2.17,0,0,0,.68-.39C87.85,37.77,87.49,39,86.07,39.13Zm3.77-3.51a1.38,1.38,0,0,0,.48-1.46,1.33,1.33,0,0,0,.68-.53A1.46,1.46,0,0,1,89.84,35.62Zm-.23-1.9c-.21.09-.37,0-.29-.26a7.06,7.06,0,0,1,1.92-2.35l1.31.31C91,31.92,90.05,33.53,89.61,33.72ZM78.78,21c.74-1.43,5.24-2.32,12.62.41,6.61,2.44,10.48,6.16,9.33,8.19-.85,1.5-5.85,2.37-13.69-.85C81.26,26.35,77.68,23.07,78.78,21Zm3,5.73c1.72,1.21,2.55,6.19,6.16,7.33-2-.14-4.76-1.58-5.5-3.44C82,29.48,82.58,28.45,81.73,26.71ZM80.88,29A2.18,2.18,0,0,0,81,30.41c.08-.75.39-1.6.94-1.78a4.09,4.09,0,0,1,0,.45c0,.18,0,.49,0,.73.12,2.85,4.41,5,7,4.59-1.36,1.06-5,.34-7-2.1a7.33,7.33,0,0,0,5,3.68A10,10,0,0,1,82.3,33.8C80.64,32.32,79.92,30.34,80.88,29Zm3.33,8.17c-2.61-.84-4.1-3.19-3.56-4.73A5.67,5.67,0,0,0,81.77,34,5.88,5.88,0,0,0,84.21,37.19ZM79,35.4c-1.19-2.25-.23-3.73,1.11-4.29a8.79,8.79,0,0,0,.33,1,3.2,3.2,0,0,0,.7,3.47,6,6,0,0,0,5.07,2.14c-1.72,1.4-5.49-.5-6.32-2.09.47,1.46,2.47,2.9,3.83,3.43A7.47,7.47,0,0,1,79,35.4Zm2.37,4.37a2,2,0,0,0,.69.44,15.54,15.54,0,0,1-12.73.07C72.16,41.14,77.55,41.55,81.39,39.77ZM62.3,36.08a1.86,1.86,0,0,0,1.9,2.05,15.57,15.57,0,0,0,6,3.48h0a8.11,8.11,0,0,1-1.23-.28,11.18,11.18,0,0,1-5-2.85S61.72,38.67,62.3,36.08ZM62.83,39c.46.24.2.44-.34.44a3.83,3.83,0,0,1-.75,0,1.15,1.15,0,0,0,.68.24c.19,0-.06.2-.5.16a6.61,6.61,0,0,1-1.51-.51C60.92,39.16,61.83,38.51,62.83,39ZM61.66,36.9c.05.24,0,.46-.2.4s-.07-.51-.24-.76c0,.48-.06.69-.18.66-.47-.08-.4-1.65-.64-2.38A5.16,5.16,0,0,1,61.66,36.9Zm-1.45-.7c0,.56-.28.53-.35.37a3.26,3.26,0,0,0-.36-.9c.16.8-.26,1.14-.64.44A15.52,15.52,0,0,1,58.14,33C58.56,33.87,60.14,35.06,60.21,36.2Zm-4.15-4.71c.59,1,1.95,2,2,3.17a.36.36,0,0,1-.19.37c-.26.16-.22-.43-.54-.87,0,.12,0,.92-.23.76C56.39,34.48,56,31.86,56.06,31.49Zm-2.91-.67c.75.85,2.3,1,2.7,2.25.07.2-.05.5-.33.38a1.57,1.57,0,0,1-.47-.49c.06.3-.14.41-.31.27A7.51,7.51,0,0,1,53.15,30.82Zm-.1,2.31c1.09.44,2.51.64,3.08,1.4.19.24-.11.32-.38.27a2.17,2.17,0,0,1-.82-.33,6.14,6.14,0,0,0,.46.45c.27.39-.37.24-.85-.09A5.3,5.3,0,0,1,53.05,33.13ZM43.87,35a3.5,3.5,0,0,1-.07-.45c.66-.18,2.72-.35,7,1.58C47.4,34,44.84,33.8,43.83,34a2.32,2.32,0,0,1,.06-.38c.88-.12,3.36.11,7.29,1.94A14.26,14.26,0,0,0,44,33.08c.06-.11.19-.33.26-.43a19.47,19.47,0,0,1,7.63,2.53,17.36,17.36,0,0,0-7.17-3,1.84,1.84,0,0,1,1.67-.15,33,33,0,0,1,7.32,3.57,4.08,4.08,0,0,0-.6.11c1.11.29,2.65,1.66,4.21,1.7a5.6,5.6,0,0,1-.85.31c-.37-.13-1.11-.38-2-.7a7.49,7.49,0,0,0,1.62.82,20.32,20.32,0,0,0,2.08,1.18,31.8,31.8,0,0,1-4.05-1.48,19.14,19.14,0,0,0,4.76,2,4.09,4.09,0,0,0,.73.47c-4-.94-7.55-2.88-10.47-4.1C47.32,35.18,45.22,34.57,43.87,35Zm-.58,14.2h14l.36,4.06a5,5,0,0,0-3.4-1.33H52.91c0,.31,0,9.4,0,9.4a6.86,6.86,0,0,0,1,4.22H46.68a6.93,6.93,0,0,0,1-4.22s0-9.09,0-9.4H46.33a5,5,0,0,0-3.41,1.33Zm-2,.57v3.72a7.87,7.87,0,0,0-3-1.83c-1.86-.55-3.3-.22-3.71.62s0,1.53.93,2A45.52,45.52,0,0,1,39.9,56a4.65,4.65,0,0,1,2.54,4.77c-.15,2.84-2.51,5-6.62,5.1a14.22,14.22,0,0,1-5.92-1.15V60.46a7.94,7.94,0,0,0,3.33,2.31c2,.67,3.75.37,4.21-.77a1.41,1.41,0,0,0-.71-1.85c-.91-.54-2.54-.9-4.14-1.74-2.07-1.09-2.94-2.32-2.88-4.46a4.88,4.88,0,0,1,1.73-3.66,6.62,6.62,0,0,1,4.2-1.52A13,13,0,0,1,41.25,49.72ZM30.66,33.61h9.69a4.91,4.91,0,0,0-.24.74h-8a3.2,3.2,0,0,0-1.42.32A3.33,3.33,0,0,0,32.1,35H40a4.76,4.76,0,0,0,0,1.07H30.66a1.22,1.22,0,1,1,0-2.44Zm1.9,49.53s-.26.67-.39,1a3.33,3.33,0,0,0,.1,3H27.19a7.54,7.54,0,0,0,1.93-3c.37-.87,4.21-10.9,4.21-10.9A3,3,0,0,0,33,70.87h6.15s5.16,12.4,5.53,13.32a8.33,8.33,0,0,0,2,3H38.86a3.45,3.45,0,0,0,.15-3c-.11-.34-.43-1-.43-1Zm2.24,19.19a1.22,1.22,0,1,1,0-2.44h80.62a1.22,1.22,0,1,1,0,2.44Z"/><path class="cls-1" d="M145.94,66.94C141.79,58.83,139.17,58,141,53a2.72,2.72,0,0,0-3.12,3.08c.22,3.17,5.13,5.57,8.66,14.56-2.93-1.45-4.68,1.83-2.69,6.18.07.18.14.35.21.5a27.18,27.18,0,0,1,2.08,5c0-.35-.48-6.11-1.44-8.38a4,4,0,0,0-.7,1.25c0-1.84.54-3.59,2.81-3.86.13.35.26.71.38,1.08a29.68,29.68,0,0,1,.8,16.26,10.21,10.21,0,0,0-.15-1.7c.18-1.61.83-7.35-1.17-12.42,1,4.62,1.08,7.73.64,10.37a5.4,5.4,0,0,1-.26-.86,24.55,24.55,0,0,0-1.25-9.47,41.39,41.39,0,0,1,.86,9.08,3.52,3.52,0,0,0,.08.9,15.64,15.64,0,0,1-.61,9.21l-.21.43a13.85,13.85,0,0,0,.39-5.76c0,3.26-1.37,8.48-3,9.64,2.23-4.35,4.91-12.72-2.15-19.84,7.09,8.24,3,22.47-7.65,26.4a8.91,8.91,0,0,0,.83-.81,8.06,8.06,0,0,0,2.51-1.69,6.9,6.9,0,0,1-1.94,1c.11-.16.22-.32.32-.49a7.82,7.82,0,0,0,2.81-2.45,10.06,10.06,0,0,1-2.42,1.73,6.74,6.74,0,0,0,.35-.82,8.84,8.84,0,0,0,2.77-2.42,11.09,11.09,0,0,1-2.6,1.93c.06-.2.11-.4.16-.62a3.93,3.93,0,0,0,1.32-1.18,4.34,4.34,0,0,1-1.24.79,9.3,9.3,0,0,0,.15-1.11c-1.12,4.67-3.95,6.95-6.95,7.08a7.53,7.53,0,0,0,2.5-1.43c3.2-2.88,5.28-9.06,1-15.71,3.16,6.56,1.78,13.19-2.67,15.66a9.86,9.86,0,0,1-7.63.46,16,16,0,0,1-2.1-.9c0-.1,0-.2.07-.3,2.09,1.18,8.5,2.82,11.29-1.76-4.28,4.38-9.82,1.89-11.22,1.14,0-.14,0-.3,0-.45,1.15.71,5.34,2.38,8.38.4a9.54,9.54,0,0,1-8.42-.91c0-.24,0-.32-.06-.58a6.19,6.19,0,0,0,3.72,1.27,7.16,7.16,0,0,1-3.92-2c0-.14-.08-.28-.13-.43.27,6.36-4.76,5.45-5.79,3.33h.31c.8,1.12,3.31,1.65,4.22-.16a2.75,2.75,0,0,1-3.78.16h.07a2.3,2.3,0,0,0,.45,0c2.22,1,3.61-.73,3.25-2.92-.15,2.25-1.28,2.94-2.64,2.7a1.52,1.52,0,0,0,.34-.22c1.81-.3,1.89-2.23,1.82-3.37a3.3,3.3,0,0,1-1,2.25,2.48,2.48,0,0,0,.12-.67c.59-1.22.31-2.53,1-3.63a6.28,6.28,0,0,0-1.14,2.74,5.08,5.08,0,0,1,3.53-5.36,4.47,4.47,0,0,1,4.64,1.33,3,3,0,0,1-.19,4,2.72,2.72,0,0,0-2.3-2.15,1.73,1.73,0,0,1,0-.32,2.92,2.92,0,0,1,2.28,1.55c-.17-1.25-1.37-1.78-2.14-2a2.72,2.72,0,0,1,.11-.25,4,4,0,0,1,1.79,1,2.73,2.73,0,0,0-1.61-1.22,1.35,1.35,0,0,1,.28-.25,3,3,0,0,1,1,.53,1.91,1.91,0,0,0-.68-.7,1.56,1.56,0,0,1,.62-.11c-2.8-1.57-4.7,2.25-2.33,4.25a6.08,6.08,0,0,0,6.06.62c4.46-2,4.15-6,3-7.79a3.13,3.13,0,0,0-3.56-1.51,3.78,3.78,0,0,1,5.09,1.81,9,9,0,0,1-.42,7.06,8.19,8.19,0,0,0,.78-7.32c-1.15-2.64-4.16-3.28-6-1.23A2.61,2.61,0,0,1,129,89.74a2.92,2.92,0,0,1,3.38.8A2.7,2.7,0,0,0,130.57,89c-1.11-2.45.18-4.55-.22-6.18,1.45.35,3.72,2,4.24,3.25h0a3.3,3.3,0,0,1,4.95-.46h0a3.36,3.36,0,0,0-2.3,2.75,2.46,2.46,0,0,1,1.48-2.81c-2.21-.27-2.25,1.63-2.15,2.79a27.23,27.23,0,0,1,.33,8.76,10.24,10.24,0,0,0,4.38-5.59A14.66,14.66,0,0,1,137.36,102c4.12-3.33,5.45-9.58,4.92-14.06a11.44,11.44,0,0,0-6.41-9.14,8.1,8.1,0,0,0-3.93-.8c1-1.94,3.58-2.44,6-1.28-.7-.58-5.15-4.62-2.18-10.11.75,2.61,4.1,3,4.88,8.5,0-2.59.59-4.36,2.38-5.11-3.07-6.73-12.24-10.89-16.6-19-2.63-4.89-2.5-9.51-2.68-11.95s-1-5.72-3.47-6.43c4-1,7.13,3.29,7.37,10.17a2.55,2.55,0,0,0-.48.27,13.77,13.77,0,0,0-2-6.85,22.57,22.57,0,0,1,1.56,7.26,2.36,2.36,0,0,0-.28.42,20.31,20.31,0,0,0-1.37-6.06,31.55,31.55,0,0,1,1,7,5.37,5.37,0,0,0,.49,3.26c-1-4.9,2.65-5.22,3.42-5.07-2.23,2.29-1.94,6.88-.77,8.86a5.05,5.05,0,0,1,1-5.16,6.14,6.14,0,0,1,.74-4.3,7.51,7.51,0,0,0-2,0c-1-4.21-.07-7.24,1.5-8.72,1.3-1.22,3.17-1.16,3.58,0a1.21,1.21,0,0,1-.52,1.5c-.52.25-1.44.08-1.73-1.07,0,1.87,2.38,3.89,4.43,2.52a2.87,2.87,0,0,1-2.07,2A2,2,0,0,1,132.54,37a2.6,2.6,0,0,0,.38,1.6,2.3,2.3,0,0,1-.6-.27,2.58,2.58,0,0,1-.6-2.08,2.1,2.1,0,0,0-.23,1.27,3,3,0,0,1,0-3.19,3.17,3.17,0,0,0-.37,4.43,3.09,3.09,0,0,0,4.12.63,4.87,4.87,0,0,0,.28-7.91,6.61,6.61,0,0,0-8.54.66,5.43,5.43,0,0,1,4.67-.81,7.26,7.26,0,0,0-3.76,5.76,5,5,0,0,0-.46-1.2A5.88,5.88,0,0,1,129,32.38,4.76,4.76,0,0,0,127,35.19c-.11-.17-.23-.35-.36-.53a4,4,0,0,1,1.3-2.12,3,3,0,0,0-1.57,1.77l-.06-.07a2.75,2.75,0,0,1,.29-1.67,4.7,4.7,0,0,0-.75,1.15c-1.7-1.81-4.18-2.8-6.8-1.15h-9.73a5,5,0,0,0-1.35-1.23c1.39,1.05,1.14,6.07-3.6,6.27a3.92,3.92,0,0,0,4.76-4.74c.89,2.28-.09,4.81-1.79,5.47-1.9.72-4.19.06-4.56-2.3,2.07,1.31,5.52-1,4.65-3.74s-4.92-.82-8.63,1.4h0a3.43,3.43,0,0,0,.23-.8c.18-.28.51-.86.4-.93-1.22,2-3.13,1.92-3.85,2.49a3.63,3.63,0,0,0,0-1c.21-.39.41-.74.32-.9-.79,1.52-1.88,2-2.46,2.66a1.63,1.63,0,0,0,0-.44,5.47,5.47,0,0,0,.47-.89.69.69,0,0,0,.06-.39A10.3,10.3,0,0,1,91,36.53c0-.07,0-.23,0-.35a3,3,0,0,1-1.73.59c0,1.56-.84,3.52-4.31,3.38a9,9,0,0,1-2.52,1.39l-.7.25a15.28,15.28,0,0,1-4.23.54h-.13A16.19,16.19,0,0,0,85,39.8c2.8.13,4-1.49,3.93-3.34,2.1-.13,4-1.37,3.43-3.79,2.57-1.64,10.13,0,9.69-3.93-.21-1.78-2.87-4.38-7.93-6.7-4.25-1.95-9.68-3.32-13.79-2.64-2.9.48-3,2.3-1.89,4.09s2.66,2.44,3,4.42a2.73,2.73,0,0,0-1.56,2.79,2.94,2.94,0,0,0-2,2.84c-3.49,2.35-7.95,1.36-9.61.54a1.78,1.78,0,0,0-2.08-1.76c.56,0,.84.84,1,1.39a1.05,1.05,0,0,0-1,.1,1.93,1.93,0,0,1,1.09.42,11.79,11.79,0,0,0,11,.16,6.31,6.31,0,0,0,.56,2.46c-2.62,1.42-7.14,2.08-12.29.42,3.91,1.8,8.55,2.56,12.81.55a7.71,7.71,0,0,0,.55.73c-3.53,1.64-11.19,2-15.64-2a2.59,2.59,0,0,1,1.24-2.56,2.65,2.65,0,0,0-1.7,1.89c-.36-.26-.89-1.66,1.07-3.14a4.35,4.35,0,0,0-1.75,1.43,16,16,0,0,1-1.58-1.67,6.29,6.29,0,0,0,1.29,2.12l-.12.2a22.24,22.24,0,0,1-1.76-2.62,1.75,1.75,0,0,1,1.33-1.63c-.87,0-1.68.92-1.53,1.62a1.88,1.88,0,0,1,1.45-2.78,3.9,3.9,0,0,0-2.08,1.07,22.46,22.46,0,0,1-1.14-3.63,1.61,1.61,0,0,1,1-.59,7.41,7.41,0,0,1-.51-2.64,1.66,1.66,0,0,0-.46.05c-.27-1.19,1-1.46,1.33-1.43-1.61-.49-3.18.42-3,1.33a1.13,1.13,0,0,0,.69.71,27.31,27.31,0,0,0,1.58,7,1.35,1.35,0,0,0,.81,1.84,20.82,20.82,0,0,0,1.29,2.2,3.64,3.64,0,0,1-1.6-1.51c0,.22-.1.43-.13.66-.49-.71-2.25-1.81-2.68-4.29-.2.48.33,1.71.45,2a2.29,2.29,0,0,1,0,.68,8.26,8.26,0,0,1-2.62-4.49.6.6,0,0,0,0,.4,12.24,12.24,0,0,0,.46,1.67,2,2,0,0,1,.16.7,2.7,2.7,0,0,0,0,.75c-1.37-1.09-2.6-.75-4-3.66a1,1,0,0,0,.09.43c.17.41.45.95.62,1.27a7.9,7.9,0,0,0,1,2.92c-1.22-.31-1.9-1-2.93-2.25-.06.1.15.38.43.73.71.85,1.14,1.17,1.21,1.31a8.57,8.57,0,0,0,1.71,2.6c-4.14-2.57-10-6.35-11-2.89C42,35.07,45.4,37.35,47.48,36c-.37,2.36-2.67,3-4.56,2.3-1.71-.66-2.69-3.19-1.8-5.47a3.92,3.92,0,0,0,4.76,4.74c-4.74-.2-5-5.22-3.59-6.27a4.74,4.74,0,0,0-1.35,1.23H31.21c-2.63-1.65-5.11-.66-6.81,1.15a4.7,4.7,0,0,0-.75-1.15,2.75,2.75,0,0,1,.29,1.67l-.06.07a3,3,0,0,0-1.57-1.77,4,4,0,0,1,1.31,2.12c-.14.18-.26.36-.37.53a4.72,4.72,0,0,0-2.07-2.81,6,6,0,0,1,1.66,3.52,5,5,0,0,0-.46,1.2,7.29,7.29,0,0,0-3.77-5.76,5.43,5.43,0,0,1,4.67.81,6.6,6.6,0,0,0-8.53-.66A4.87,4.87,0,0,0,15,39.4a3.09,3.09,0,0,0,4.12-.63,3.16,3.16,0,0,0-.37-4.43,3,3,0,0,1,0,3.19,2,2,0,0,0-.23-1.27,2.54,2.54,0,0,1-.6,2.08,2.3,2.3,0,0,1-.6.27,2.47,2.47,0,0,0,.38-1.6,2,2,0,0,1-1.56,1.64,2.83,2.83,0,0,1-2.06-2c2,1.37,4.45-.65,4.42-2.52-.29,1.15-1.21,1.32-1.73,1.07a1.21,1.21,0,0,1-.52-1.5c.42-1.17,2.29-1.23,3.58,0,1.57,1.48,2.49,4.51,1.5,8.72a7.51,7.51,0,0,0-2,0,6,6,0,0,1,.74,4.3,5,5,0,0,1,1,5.16c1.17-2,1.46-6.57-.77-8.86.77-.15,4.39.17,3.42,5.07a5.37,5.37,0,0,0,.49-3.26,31.55,31.55,0,0,1,1-7,20.31,20.31,0,0,0-1.37,6.06,3,3,0,0,0-.27-.42,22.5,22.5,0,0,1,1.55-7.26A13.77,13.77,0,0,0,23,43a2.27,2.27,0,0,0-.48-.27c.25-6.88,3.37-11.18,7.37-10.17-2.49.71-3.3,4.06-3.47,6.43S26.4,46.08,23.77,51c-4.36,8.11-13.53,12.27-16.6,19,1.79.75,2.41,2.52,2.38,5.11.79-5.49,4.13-5.89,4.89-8.5,3,5.49-1.49,9.53-2.19,10.11,2.45-1.16,5-.66,6,1.28a8.14,8.14,0,0,0-3.93.8,11.44,11.44,0,0,0-6.41,9.14c-.53,4.48.8,10.73,4.93,14.06A14.63,14.63,0,0,1,8.94,91.49a10.28,10.28,0,0,0,4.38,5.59,26.85,26.85,0,0,1,.34-8.76c.09-1.16.05-3.06-2.16-2.79A2.44,2.44,0,0,1,13,88.34a3.33,3.33,0,0,0-2.3-2.75,3.3,3.3,0,0,1,5,.46c.52-1.27,2.79-2.9,4.25-3.25-.41,1.63.88,3.73-.22,6.18a2.71,2.71,0,0,0-1.82,1.56,2.93,2.93,0,0,1,3.39-.8,2.62,2.62,0,0,1,1.44,2.42c-1.86-2-4.88-1.41-6,1.23a8.19,8.19,0,0,0,.78,7.32A8.9,8.9,0,0,1,17,93.65a3.76,3.76,0,0,1,5.08-1.81,3.11,3.11,0,0,0-3.55,1.51c-1.2,1.79-1.51,5.77,3,7.79a6.06,6.06,0,0,0,6.05-.62c2.37-2,.47-5.82-2.32-4.25a1.64,1.64,0,0,1,.62.11,1.85,1.85,0,0,0-.69.7,3,3,0,0,1,1-.53,1.14,1.14,0,0,1,.28.25A2.69,2.69,0,0,0,24.88,98a3.91,3.91,0,0,1,1.78-1,2.72,2.72,0,0,1,.11.25c-.76.24-2,.77-2.13,2a2.89,2.89,0,0,1,2.27-1.55c0,.09,0,.23,0,.32a2.7,2.7,0,0,0-2.3,2.15,3,3,0,0,1-.2-4,4.47,4.47,0,0,1,4.64-1.33,5.07,5.07,0,0,1,3.53,5.36,6.25,6.25,0,0,0-1.13-2.74c.66,1.1.38,2.41,1,3.63a2.48,2.48,0,0,0,.12.67,3.3,3.3,0,0,1-1-2.25c-.07,1.14,0,3.07,1.82,3.37a1.79,1.79,0,0,0,.34.22c-1.36.24-2.48-.45-2.64-2.7-.36,2.19,1,3.89,3.25,2.92a2.3,2.3,0,0,0,.45,0h.08a2.75,2.75,0,0,1-3.78-.16c.9,1.81,3.42,1.28,4.21.16h.31c-1,2.12-6.05,3-5.79-3.33-.05.15-.08.29-.12.43a7.26,7.26,0,0,1-3.93,2,6.23,6.23,0,0,0,3.73-1.27,4.16,4.16,0,0,0-.07.58,9.51,9.51,0,0,1-8.41.91c3,2,7.22.31,8.38-.4a3.38,3.38,0,0,0,0,.45c-1.4.75-6.93,3.24-11.22-1.14,2.79,4.58,9.2,2.94,11.3,1.76,0,.1,0,.2.06.3a15.4,15.4,0,0,1-2.1.9,9.83,9.83,0,0,1-7.62-.46C15.36,101.67,14,95,17.14,88.48c-4.28,6.65-2.21,12.83,1,15.71a7.73,7.73,0,0,0,2.5,1.43c-3-.13-5.82-2.41-6.94-7.08a7.62,7.62,0,0,0,.15,1.11,4.08,4.08,0,0,1-1.24-.79A3.84,3.84,0,0,0,13.91,100c.05.22.11.42.17.62a10.94,10.94,0,0,1-2.61-1.93,8.84,8.84,0,0,0,2.77,2.42,8.79,8.79,0,0,0,.35.82,10.26,10.26,0,0,1-2.42-1.73A7.82,7.82,0,0,0,15,102.69l.33.49a6.94,6.94,0,0,1-2-1,8.06,8.06,0,0,0,2.51,1.69,8.91,8.91,0,0,0,.83.81C6,100.77,2,86.54,9.06,78.3,2,85.42,4.67,93.79,6.9,98.14c-1.61-1.16-3-6.38-3-9.64a13.69,13.69,0,0,0,.39,5.76l-.22-.43a15.65,15.65,0,0,1-.6-9.21,4,4,0,0,0,.08-.9,40.08,40.08,0,0,1,.86-9.08,24.14,24.14,0,0,0-1.25,9.47,6.67,6.67,0,0,1-.27.86A27.62,27.62,0,0,1,3.56,74.6C1.56,79.67,2.21,85.41,2.39,87a10.16,10.16,0,0,0-.14,1.7A29.78,29.78,0,0,1,3,72.46c.13-.37.25-.73.38-1.08,2.27.27,2.86,2,2.81,3.86A4.2,4.2,0,0,0,5.54,74c-1,2.27-1.44,8-1.44,8.38a28,28,0,0,1,2.07-5,4.7,4.7,0,0,0,.21-.5c2-4.35.25-7.63-2.68-6.18,3.53-9,8.43-11.39,8.66-14.56A2.73,2.73,0,0,0,9.23,53c1.82,5-.8,5.81-4.95,13.92-14,27.28,9.34,46.4,25.65,37.71a3.44,3.44,0,0,0,2.61,1.73,6.28,6.28,0,0,0,5.53-2.93h74.08a6.29,6.29,0,0,0,5.53,2.93,3.46,3.46,0,0,0,2.62-1.73C136.6,113.34,159.91,94.22,145.94,66.94ZM136,36.05a1.59,1.59,0,0,1-2.12.24c1.61,0,2.08-2,.63-3.16C136,33.69,136.52,35.27,136,36.05Zm-119.62.24a1.59,1.59,0,0,1-2.12-.24c-.53-.78,0-2.36,1.5-2.92C14.28,34.25,14.75,36.26,16.36,36.29ZM122.8,82.54c-.15,2.86-2.51,5-6.63,5.12a14,14,0,0,1-5.94-1.17V82.25a8.36,8.36,0,0,0,3.34,2.31c2,.67,3.75.35,4.22-.78a1.4,1.4,0,0,0-.71-1.85c-.91-.54-2.55-.9-4.16-1.75-2.07-1.1-3-2.32-2.88-4.47A4.9,4.9,0,0,1,111.77,72,6.48,6.48,0,0,1,116,70.53a12.94,12.94,0,0,1,5.62.94v3.72a8.15,8.15,0,0,0-3-1.84c-1.86-.54-3.31-.2-3.72.64s0,1.54.93,2a44,44,0,0,1,4.48,1.84A4.64,4.64,0,0,1,122.8,82.54ZM124,68.34a1.85,1.85,0,1,1-1.84,1.83A1.84,1.84,0,0,1,124,68.34Zm-4.39-34.73a1.22,1.22,0,1,1,0,2.44h-9.35a3.81,3.81,0,0,0,0-1.07h7.91a3.36,3.36,0,0,0,1.38-.32,3.24,3.24,0,0,0-1.43-.32h-8a4,4,0,0,0-.23-.74ZM105.41,62.46c.36-.86,4.21-10.9,4.21-10.9a3,3,0,0,0-.36-2.45h6.15l5.53,13.32a8.52,8.52,0,0,0,2,3.07h-7.77a3.49,3.49,0,0,0,.16-3.07c-.12-.35-.43-1-.43-1h-6s-.26.65-.4,1a3.39,3.39,0,0,0,.11,3.06h-5.08A7.83,7.83,0,0,0,105.41,62.46Zm2.48,24.78h-7.23a6.8,6.8,0,0,0,1-4.2V75.11a6.88,6.88,0,0,0-1-4.21h7.23a6.88,6.88,0,0,0-1,4.21V83A6.8,6.8,0,0,0,107.89,87.24Zm-4.44-25.86-.4,4.11H89.53a6.93,6.93,0,0,0,1-4.22V53.34a6.9,6.9,0,0,0-1-4.21h7.33a6.83,6.83,0,0,0-1,4.21V62.7h4.08A5.56,5.56,0,0,0,103.45,61.38Zm-4.4,17.7c0,5.3-4.21,8.73-9.41,8.73s-9.4-3.43-9.4-8.73,4.21-8.71,9.4-8.71S99.05,73.8,99.05,79.08ZM95.2,37.45c-.29,0-.49-.13-.37-.35.46-.83,2.1-.72,3.23-1a4.93,4.93,0,0,1-1.63,1.58c-.52.27-1.22.28-.9-.07.09-.1.36-.23.51-.39A2.2,2.2,0,0,1,95.2,37.45Zm.17,1a7.43,7.43,0,0,1-1.76.7c-.4.07-1,0-.89-.2s.74-.05,1-.41a4.3,4.3,0,0,1-1.07.06c-.39-.06-.21-.52.31-.68C93.9,37.65,94.86,38.29,95.37,38.45Zm3-3.92a24.45,24.45,0,0,1,5.4-2.45,1.84,1.84,0,0,1,1.67.15,17.34,17.34,0,0,0-7.16,3,19.4,19.4,0,0,1,7.62-2.53c.07.1.2.32.26.43a12.28,12.28,0,0,0-6,1.88,14.7,14.7,0,0,1,6.16-1.39c0,.12,0,.25.07.38-1-.15-3.58.09-6.93,2.13,4.23-1.93,6.29-1.76,7-1.58a2.34,2.34,0,0,1-.07.45c-1.34-.38-3.45.23-5.33,1-1.08.45-2.25,1-3.49,1.56h0c.48-.48,1.78-2.17,2.26-2.73a6,6,0,0,1-2.11.89,8,8,0,0,0,.71-1.14Zm-3,1c.2-1,2-1,2.87-1.81-.19.48-.9,1.94-1.93,2.25-.11,0-.19,0-.18-.11a3.39,3.39,0,0,1,.18-.51s-.41.48-.61.54S95.34,35.63,95.36,35.54Zm-.18-1.43c0,.39-.44,2.79-1.15,3.06-.27.11-.18-.76-.14-.86a2.34,2.34,0,0,0-.31.61c-.15.33-.48.37-.56,0C92.87,36.3,94.52,34.89,95.18,34.11Zm-4.4,3.64c.47-1,1.89-1.87,2.25-2.4a9.26,9.26,0,0,1-1.12,2.89c-.5.57-.83.23-.58-.51a2.36,2.36,0,0,0-.4.63c-.06.12-.19.1-.24,0A1,1,0,0,1,90.78,37.75Zm0,1.29a6.08,6.08,0,0,1,1.28.63c-.63.23-1.38.52-1.86.25-.09-.05-.08-.08,0-.11s.56,0,.67-.19a1.18,1.18,0,0,1-1-.22C89.72,39.18,90.11,38.88,90.79,39Zm-2.54.88c.56-.18.88.32,1.29.51-.72.15-1,.23-1.33.1-.07,0-.08-.09,0-.1a1.42,1.42,0,0,0,.6-.1,1.55,1.55,0,0,1-.69-.12C88,40.13,88.07,40,88.25,39.92Zm-6.47,9.21a6.83,6.83,0,0,0-1,4.21V62.7h4.09a5.55,5.55,0,0,0,3.5-1.32L88,65.49H74.45a6.86,6.86,0,0,0,1-4.22V53.34a6.83,6.83,0,0,0-1-4.21ZM74.45,83a6.8,6.8,0,0,0,1,4.2H68.21a6.87,6.87,0,0,0,1-4.2s0-9.09,0-9.41l-1.46,0A5.16,5.16,0,0,0,64.27,75l.37-4.07H79L79.39,75a5.16,5.16,0,0,0-3.49-1.32l-1.46,0C74.44,74,74.45,83,74.45,83Zm-20.37,4.2h-7a6.8,6.8,0,0,0,1-4.2V75.11a6.89,6.89,0,0,0-1-4.21h9.22c2.33,0,3.53.19,4.57.88a4.37,4.37,0,0,1-2,7.87s0,0,0,0A6.72,6.72,0,0,1,62,82.51c.42.62.88,1.38,1.7,2.55a9,9,0,0,0,2.27,2.19H61.13a3.37,3.37,0,0,1-3.34-2c-.54-.87-.91-1.48-1.33-2.13a7.66,7.66,0,0,0-1.55-1.93,2.37,2.37,0,0,0-1.67-.5H53V83A7.23,7.23,0,0,0,54.08,87.24Zm4.76-38.11H72.22L72.6,53a5.26,5.26,0,0,0-3.48-1.13h-4v3.4h5.09l.37,3.88A5.25,5.25,0,0,0,67.15,58h-2v4.7h4.62a5.24,5.24,0,0,0,3.48-1.13l-.37,3.92h-14a6.86,6.86,0,0,0,1-4.22V53.34A6.83,6.83,0,0,0,58.84,49.13Zm-1-12.27c.09.24-.65.21-1.11,0a8.1,8.1,0,0,1-1.2-.62L55,35.87c.66-.08,1.91-.56,3-.07.6.28.59.68.1.68a6,6,0,0,1-1.27-.28C57.12,36.66,57.83,36.74,57.88,36.86Zm2.61.71c.61.33.25.6-.47.58a4.27,4.27,0,0,1-1-.07,1.5,1.5,0,0,0,.9.34c.25,0-.08.27-.67.21a9.34,9.34,0,0,1-2-.72C58,37.7,59.19,36.86,60.49,37.57Zm4,3.09s0,.07-.09.09a2.57,2.57,0,0,1-1.63-.22A3.57,3.57,0,0,1,64.5,40c.34.09,0,.45-.6.41C64.1,40.62,64.44,40.56,64.49,40.66Zm21.58-1.53a1.42,1.42,0,0,0,.76-1.57,2.17,2.17,0,0,0,.68-.39C87.85,37.77,87.49,39,86.07,39.13Zm3.77-3.51a1.38,1.38,0,0,0,.48-1.46,1.33,1.33,0,0,0,.68-.53A1.46,1.46,0,0,1,89.84,35.62Zm-.23-1.9c-.21.09-.37,0-.29-.26a7.06,7.06,0,0,1,1.92-2.35l1.31.31C91,31.92,90.05,33.53,89.61,33.72ZM78.78,21c.74-1.43,5.24-2.32,12.62.41,6.61,2.44,10.48,6.16,9.33,8.19-.85,1.5-5.85,2.37-13.69-.85C81.26,26.35,77.68,23.07,78.78,21Zm3,5.73c1.72,1.21,2.55,6.19,6.16,7.33-2-.14-4.76-1.58-5.5-3.44C82,29.48,82.58,28.45,81.73,26.71ZM80.88,29A2.18,2.18,0,0,0,81,30.41c.08-.75.39-1.6.94-1.78a4.09,4.09,0,0,1,0,.45c0,.18,0,.49,0,.73.12,2.85,4.41,5,7,4.59-1.36,1.06-5,.34-7-2.1a7.33,7.33,0,0,0,5,3.68A10,10,0,0,1,82.3,33.8C80.64,32.32,79.92,30.34,80.88,29Zm3.33,8.17c-2.61-.84-4.1-3.19-3.56-4.73A5.67,5.67,0,0,0,81.77,34,5.88,5.88,0,0,0,84.21,37.19ZM79,35.4c-1.19-2.25-.23-3.73,1.11-4.29a8.79,8.79,0,0,0,.33,1,3.2,3.2,0,0,0,.7,3.47,6,6,0,0,0,5.07,2.14c-1.72,1.4-5.49-.5-6.32-2.09.47,1.46,2.47,2.9,3.83,3.43A7.47,7.47,0,0,1,79,35.4Zm2.37,4.37a2,2,0,0,0,.69.44,15.54,15.54,0,0,1-12.73.07C72.16,41.14,77.55,41.55,81.39,39.77ZM62.3,36.08a1.86,1.86,0,0,0,1.9,2.05,15.57,15.57,0,0,0,6,3.48h0a8.11,8.11,0,0,1-1.23-.28,11.18,11.18,0,0,1-5-2.85S61.72,38.67,62.3,36.08ZM62.83,39c.46.24.2.44-.34.44a3.83,3.83,0,0,1-.75,0,1.15,1.15,0,0,0,.68.24c.19,0-.06.2-.5.16a6.61,6.61,0,0,1-1.51-.51C60.92,39.16,61.83,38.51,62.83,39ZM61.66,36.9c.05.24,0,.46-.2.4s-.07-.51-.24-.76c0,.48-.06.69-.18.66-.47-.08-.4-1.65-.64-2.38A5.16,5.16,0,0,1,61.66,36.9Zm-1.45-.7c0,.56-.28.53-.35.37a3.26,3.26,0,0,0-.36-.9c.16.8-.26,1.14-.64.44A15.52,15.52,0,0,1,58.14,33C58.56,33.87,60.14,35.06,60.21,36.2Zm-4.15-4.71c.59,1,1.95,2,2,3.17a.36.36,0,0,1-.19.37c-.26.16-.22-.43-.54-.87,0,.12,0,.92-.23.76C56.39,34.48,56,31.86,56.06,31.49Zm-2.91-.67c.75.85,2.3,1,2.7,2.25.07.2-.05.5-.33.38a1.57,1.57,0,0,1-.47-.49c.06.3-.14.41-.31.27A7.51,7.51,0,0,1,53.15,30.82Zm-.1,2.31c1.09.44,2.51.64,3.08,1.4.19.24-.11.32-.38.27a2.17,2.17,0,0,1-.82-.33,6.14,6.14,0,0,0,.46.45c.27.39-.37.24-.85-.09A5.3,5.3,0,0,1,53.05,33.13ZM43.87,35a3.5,3.5,0,0,1-.07-.45c.66-.18,2.72-.35,7,1.58C47.4,34,44.84,33.8,43.83,34a2.32,2.32,0,0,1,.06-.38c.88-.12,3.36.11,7.29,1.94A14.26,14.26,0,0,0,44,33.08c.06-.11.19-.33.26-.43a19.47,19.47,0,0,1,7.63,2.53,17.36,17.36,0,0,0-7.17-3,1.84,1.84,0,0,1,1.67-.15,33,33,0,0,1,7.32,3.57,4.08,4.08,0,0,0-.6.11c1.11.29,2.65,1.66,4.21,1.7a5.6,5.6,0,0,1-.85.31c-.37-.13-1.11-.38-2-.7a7.49,7.49,0,0,0,1.62.82,20.32,20.32,0,0,0,2.08,1.18,31.8,31.8,0,0,1-4.05-1.48,19.14,19.14,0,0,0,4.76,2,4.09,4.09,0,0,0,.73.47c-4-.94-7.55-2.88-10.47-4.1C47.32,35.18,45.22,34.57,43.87,35Zm-.58,14.2h14l.36,4.06a5,5,0,0,0-3.4-1.33H52.91c0,.31,0,9.4,0,9.4a6.86,6.86,0,0,0,1,4.22H46.68a6.93,6.93,0,0,0,1-4.22s0-9.09,0-9.4H46.33a5,5,0,0,0-3.41,1.33Zm-2,.57v3.72a7.87,7.87,0,0,0-3-1.83c-1.86-.55-3.3-.22-3.71.62s0,1.53.93,2A45.52,45.52,0,0,1,39.9,56a4.65,4.65,0,0,1,2.54,4.77c-.15,2.84-2.51,5-6.62,5.1a14.22,14.22,0,0,1-5.92-1.15V60.46a7.94,7.94,0,0,0,3.33,2.31c2,.67,3.75.37,4.21-.77a1.41,1.41,0,0,0-.71-1.85c-.91-.54-2.54-.9-4.14-1.74-2.07-1.09-2.94-2.32-2.88-4.46a4.88,4.88,0,0,1,1.73-3.66,6.62,6.62,0,0,1,4.2-1.52A13,13,0,0,1,41.25,49.72ZM30.66,33.61h9.69a4.91,4.91,0,0,0-.24.74h-8a3.2,3.2,0,0,0-1.42.32A3.33,3.33,0,0,0,32.1,35H40a4.76,4.76,0,0,0,0,1.07H30.66a1.22,1.22,0,1,1,0-2.44Zm1.9,49.53s-.26.67-.39,1a3.33,3.33,0,0,0,.1,3H27.19a7.54,7.54,0,0,0,1.93-3c.37-.87,4.21-10.9,4.21-10.9A3,3,0,0,0,33,70.87h6.15s5.16,12.4,5.53,13.32a8.33,8.33,0,0,0,2,3H38.86a3.45,3.45,0,0,0,.15-3c-.11-.34-.43-1-.43-1Zm2.24,19.19a1.22,1.22,0,1,1,0-2.44h80.62a1.22,1.22,0,1,1,0,2.44Z"/><path class="cls-1" d="M37,100.85a6.22,6.22,0,0,0-1.8.26,6,6,0,0,0,1.8.27H113.2a5.91,5.91,0,0,0,1.8-.27,6.22,6.22,0,0,0-1.8-.26Z"/><path class="cls-1" d="M97.41,29.88c1-.14,1.66-.45,1.91-1,.5-1.1-1-2.43-1-2.43s-1.56,0-4.31,2.46c.53-1.42,2.21-2.52,3.61-3.09a25.84,25.84,0,0,0-10-4.6,34.66,34.66,0,0,1,7.6,3.92c.11.1.08.2,0,.24a6.29,6.29,0,0,0-3.13,2.84,12.69,12.69,0,0,1-5.23-1.07,6.44,6.44,0,0,0-.9-3.23A7.75,7.75,0,0,1,86.39,27c-.4-.16-.81-.33-1.24-.53a7.3,7.3,0,0,0-3-5.76s-1.64.14-2,1c-.21.53-.14,1.74,2.4,3.55C87,28.5,94.21,30.38,97.41,29.88ZM83.17,25.46a6.37,6.37,0,0,0-.63-2.23,5.11,5.11,0,0,1,.95,2.4Zm.82.44a6.63,6.63,0,0,0-1.32-3.67,5.66,5.66,0,0,1,1.85,3.93Z"/><path class="cls-1" d="M137.5,50a4.4,4.4,0,0,0-6.63-3.78,3.31,3.31,0,0,1,3.63,1c-3.22.51-3.5,4.74-2.06,7.55,2.85,5.52,6.92,7.2,11.05,13-2.14-5-9.05-9.42-5.79-13.84A4.77,4.77,0,0,0,136.05,57C128.92,51.5,134.85,47.35,137.5,50Z"/><path class="cls-1" d="M143.66,69.8a3.84,3.84,0,0,1,.41,0,16.77,16.77,0,0,0-5.1-6.07A24.1,24.1,0,0,1,143.66,69.8Z"/><path class="cls-1" d="M35.42,74.94s0,0,0,0a23.14,23.14,0,0,1-1.2,3.67l-.65,1.81h3.92l-.74-1.74A23,23,0,0,1,35.42,74.94Z"/><path class="cls-1" d="M98.45,20.22a1.88,1.88,0,0,0,2.69-.69,1.62,1.62,0,0,0-.84-2.34l-.29-.11,2.08-1-1-.58s-.57.26-.73.35c-.74.39-2.34,1-2.83,1.92A1.76,1.76,0,0,0,98.45,20.22Zm0-1.9c.26-.52.81-1,1.36-.69h0c.55.28.56.89.28,1.43a1,1,0,0,1-1.33.65l0,0A1,1,0,0,1,98.45,18.32Z"/><path class="cls-1" d="M108.34,36.87c-1.19,1.48-3.5,1.15-3.87,1.07C104.77,38.21,107.35,39,108.34,36.87Z"/><path class="cls-1" d="M41.89,36.87c1,2.11,3.56,1.34,3.86,1.07C45.38,38,43.08,38.35,41.89,36.87Z"/><path class="cls-1" d="M85.46,79.08c0,3.94,1.88,6,4.18,6s4.19-2.07,4.19-6-1.88-6-4.19-6S85.46,75.14,85.46,79.08Z"/><path class="cls-1" d="M22.8,46.61a9.57,9.57,0,0,1-.9,5C22.92,50.24,23.41,47.86,22.8,46.61Z"/><path class="cls-1" d="M131.32,92.39c1,.48,2,2.36,1.51,5.21C133.58,96,133.19,93.18,131.32,92.39Z"/><path class="cls-1" d="M14.26,91.64c.2-1.08,2.37-4.64-.29-6.13C15.77,87.35,14.17,90.56,14.26,91.64Z"/><path class="cls-1" d="M6.22,90.82C6.27,85,8.06,81,10.15,78.87,6.88,80.84,5.48,86.2,6.22,90.82Z"/><path class="cls-1" d="M18.91,92.39C17,93.18,16.64,96,17.39,97.6,16.93,94.75,18,92.87,18.91,92.39Z"/><path class="cls-1" d="M13.51,78a7.6,7.6,0,0,0-5.35,5.64A10.94,10.94,0,0,1,13.51,78Z"/><path class="cls-1" d="M14.51,68.41c-.39,4-3.34,7.82-4.62,9.13C11.08,76.81,14.81,73.35,14.51,68.41Z"/></g></g></svg>