<svg width="85" height="18" viewBox="0 0 85 18" fill="none" xmlns="http://www.w3.org/2000/svg">
<path fill-rule="evenodd" clip-rule="evenodd" d="M62.6343 0.500684H50.2594V17.4993H54.7692V2.78965H59.8891C61.1092 2.78965 62.1118 3.7888 62.1118 5.01227V17.5H66.6216V4.48841C66.6216 2.29588 64.8284 0.500684 62.6343 0.500684Z" fill="#2467F2"/>
<path fill-rule="evenodd" clip-rule="evenodd" d="M81.01 0.5H72.6251C70.4297 0.5 68.6351 2.2952 68.6351 4.48773V13.5109C68.6351 15.7034 70.4304 17.4979 72.6251 17.4979H81.01C83.2061 17.4979 85 15.7034 85 13.5109V4.48773C85 2.2952 83.2061 0.5 81.01 0.5ZM78.2647 2.78896C79.4876 2.78896 80.4875 3.78948 80.4875 5.0109V12.987C80.4875 14.2112 79.4876 15.211 78.2647 15.211H75.3704C74.1482 15.211 73.1476 14.2105 73.1476 12.987V5.0109C73.1476 3.78948 74.1482 2.78896 75.3704 2.78896H78.2647Z" fill="#2467F2"/>
<path fill-rule="evenodd" clip-rule="evenodd" d="M22.3677 0.500684H32.3065V2.78965H25.113C23.8901 2.78965 22.8895 3.7888 22.8895 5.01227V5.44722C22.8895 6.67001 23.8901 7.67053 25.113 7.67053H32.3065V9.95812H22.8895V12.9884C22.8895 14.2112 23.8901 15.2104 25.113 15.2104H32.3065V17.4993H22.3677C20.1716 17.4993 18.3777 15.7041 18.3777 13.5109V4.48841C18.3777 2.29588 20.1716 0.500684 22.3677 0.500684Z" fill="#2467F2"/>
<path fill-rule="evenodd" clip-rule="evenodd" d="M38.3072 0.500684H48.2467V2.78965H41.0532C39.8303 2.78965 38.8304 3.7888 38.8304 5.01227V12.9891C38.8304 14.2119 39.831 15.211 41.0532 15.211H48.2467V17.5H38.3072C36.1132 17.5 34.3172 15.7048 34.3172 13.5116V4.48841C34.3172 2.29588 36.1132 0.500684 38.3072 0.500684Z" fill="#2467F2"/>
<path fill-rule="evenodd" clip-rule="evenodd" d="M0 0.500684V2.78965H5.92756V17.4993H10.4394V5.01159C10.4394 3.79085 11.4352 2.7917 12.658 2.78896H16.3649V0.500684H0Z" fill="#2467F2"/>
</svg>